<svg id="my-svg" width="100%" xmlns="http://www.w3.org/2000/svg" xmlns:xlink="http://www.w3.org/1999/xlink" class="classDiagram" style="max-width: 668.457px; background-color: rgb(30, 30, 46);" viewBox="-35 0 668.45703125 934" role="graphics-document document" aria-roledescription="class"><style>#my-svg{font-family:"trebuchet ms",verdana,arial,sans-serif;font-size:16px;fill:#e8e8f0;}@keyframes edge-animation-frame{from{stroke-dashoffset:0;}}@keyframes dash{to{stroke-dashoffset:0;}}#my-svg .edge-animation-slow{stroke-dasharray:9,5!important;stroke-dashoffset:900;animation:dash 50s linear infinite;stroke-linecap:round;}#my-svg .edge-animation-fast{stroke-dasharray:9,5!important;stroke-dashoffset:900;animation:dash 20s linear infinite;stroke-linecap:round;}#my-svg .error-icon{fill:#a44141;}#my-svg .error-text{fill:#ddd;stroke:#ddd;}#my-svg .edge-thickness-normal{stroke-width:1px;}#my-svg .edge-thickness-thick{stroke-width:3.5px;}#my-svg .edge-pattern-solid{stroke-dasharray:0;}#my-svg .edge-thickness-invisible{stroke-width:0;fill:none;}#my-svg .edge-pattern-dashed{stroke-dasharray:3;}#my-svg .edge-pattern-dotted{stroke-dasharray:2;}#my-svg .marker{fill:#9090aa;stroke:#9090aa;}#my-svg .marker.cross{stroke:#9090aa;}#my-svg svg{font-family:"trebuchet ms",verdana,arial,sans-serif;font-size:16px;}#my-svg p{margin:0;}#my-svg g.classGroup text{fill:#6db33f;stroke:none;font-family:"trebuchet ms",verdana,arial,sans-serif;font-size:10px;}#my-svg g.classGroup text .title{font-weight:bolder;}#my-svg .cluster-label text{fill:#f0f0fa;}#my-svg .cluster-label span{color:#f0f0fa;}#my-svg .cluster-label span p{background-color:transparent;}#my-svg .cluster rect{fill:#252535;stroke:#6db33f;stroke-width:1px;}#my-svg .cluster text{fill:#f0f0fa;}#my-svg .cluster span{color:#f0f0fa;}#my-svg .nodeLabel,#my-svg .edgeLabel{color:#f0f0fa;}#my-svg .edgeLabel .label rect{fill:#2a2a3e;}#my-svg .label text{fill:#f0f0fa;}#my-svg .labelBkg{background:#2a2a3e;}#my-svg .edgeLabel .label span{background:#2a2a3e;}#my-svg .classTitle{font-weight:bolder;}#my-svg .node rect,#my-svg .node circle,#my-svg .node ellipse,#my-svg .node polygon,#my-svg .node path{fill:#2a2a3e;stroke:#6db33f;stroke-width:1px;}#my-svg .divider{stroke:#6db33f;stroke-width:1;}#my-svg g.clickable{cursor:pointer;}#my-svg g.classGroup rect{fill:#2a2a3e;stroke:#6db33f;}#my-svg g.classGroup line{stroke:#6db33f;stroke-width:1;}#my-svg .classLabel .box{stroke:none;stroke-width:0;fill:#2a2a3e;opacity:0.5;}#my-svg .classLabel .label{fill:#6db33f;font-size:10px;}#my-svg .relation{stroke:#9090aa;stroke-width:1;fill:none;}#my-svg .dashed-line{stroke-dasharray:3;}#my-svg .dotted-line{stroke-dasharray:1 2;}#my-svg #compositionStart,#my-svg .composition{fill:#9090aa!important;stroke:#9090aa!important;stroke-width:1;}#my-svg #compositionEnd,#my-svg .composition{fill:#9090aa!important;stroke:#9090aa!important;stroke-width:1;}#my-svg #dependencyStart,#my-svg .dependency{fill:#9090aa!important;stroke:#9090aa!important;stroke-width:1;}#my-svg #dependencyStart,#my-svg .dependency{fill:#9090aa!important;stroke:#9090aa!important;stroke-width:1;}#my-svg #extensionStart,#my-svg .extension{fill:transparent!important;stroke:#9090aa!important;stroke-width:1;}#my-svg #extensionEnd,#my-svg .extension{fill:transparent!important;stroke:#9090aa!important;stroke-width:1;}#my-svg #aggregationStart,#my-svg .aggregation{fill:transparent!important;stroke:#9090aa!important;stroke-width:1;}#my-svg #aggregationEnd,#my-svg .aggregation{fill:transparent!important;stroke:#9090aa!important;stroke-width:1;}#my-svg #lollipopStart,#my-svg .lollipop{fill:#2a2a3e!important;stroke:#9090aa!important;stroke-width:1;}#my-svg #lollipopEnd,#my-svg .lollipop{fill:#2a2a3e!important;stroke:#9090aa!important;stroke-width:1;}#my-svg .edgeTerminals{font-size:11px;line-height:initial;}#my-svg .classTitleText{text-anchor:middle;font-size:18px;fill:#e8e8f0;}#my-svg .label-icon{display:inline-block;height:1em;overflow:visible;vertical-align:-0.125em;}#my-svg .node .label-icon path{fill:currentColor;stroke:revert;stroke-width:revert;}#my-svg :root{--mermaid-font-family:"trebuchet ms",verdana,arial,sans-serif;}</style><g><defs><marker id="my-svg_class-aggregationStart" class="marker aggregation class" refX="18" refY="7" markerWidth="190" markerHeight="240" orient="auto"><path d="M 18,7 L9,13 L1,7 L9,1 Z"/></marker></defs><defs><marker id="my-svg_class-aggregationEnd" class="marker aggregation class" refX="1" refY="7" markerWidth="20" markerHeight="28" orient="auto"><path d="M 18,7 L9,13 L1,7 L9,1 Z"/></marker></defs><defs><marker id="my-svg_class-extensionStart" class="marker extension class" refX="18" refY="7" markerWidth="190" markerHeight="240" orient="auto"><path d="M 1,7 L18,13 V 1 Z"/></marker></defs><defs><marker id="my-svg_class-extensionEnd" class="marker extension class" refX="1" refY="7" markerWidth="20" markerHeight="28" orient="auto"><path d="M 1,1 V 13 L18,7 Z"/></marker></defs><defs><marker id="my-svg_class-compositionStart" class="marker composition class" refX="18" refY="7" markerWidth="190" markerHeight="240" orient="auto"><path d="M 18,7 L9,13 L1,7 L9,1 Z"/></marker></defs><defs><marker id="my-svg_class-compositionEnd" class="marker composition class" refX="1" refY="7" markerWidth="20" markerHeight="28" orient="auto"><path d="M 18,7 L9,13 L1,7 L9,1 Z"/></marker></defs><defs><marker id="my-svg_class-dependencyStart" class="marker dependency class" refX="6" refY="7" markerWidth="190" markerHeight="240" orient="auto"><path d="M 5,7 L9,13 L1,7 L9,1 Z"/></marker></defs><defs><marker id="my-svg_class-dependencyEnd" class="marker dependency class" refX="13" refY="7" markerWidth="20" markerHeight="28" orient="auto"><path d="M 18,7 L9,13 L14,7 L9,1 Z"/></marker></defs><defs><marker id="my-svg_class-lollipopStart" class="marker lollipop class" refX="13" refY="7" markerWidth="190" markerHeight="240" orient="auto"><circle fill="transparent" cx="7" cy="7" r="6"/></marker></defs><defs><marker id="my-svg_class-lollipopEnd" class="marker lollipop class" refX="1" refY="7" markerWidth="190" markerHeight="240" orient="auto"><circle fill="transparent" cx="7" cy="7" r="6"/></marker></defs><g class="root"><g class="clusters"/><g class="edgePaths"><path d="M75.274,213.413L72.095,217.344C68.916,221.275,62.557,229.138,75.919,242.57C89.281,256.003,122.362,275.006,138.903,284.508L155.443,294.009" id="id_MusicLibrary_Track_1" class="edge-thickness-normal edge-pattern-solid relation" style=";;;" data-edge="true" data-et="edge" data-id="id_MusicLibrary_Track_1" data-points="W3sieCI6ODYuMTIwOTkwOTUzOTQ3MzcsInkiOjIwMH0seyJ4Ijo1Ni4xOTkyMTg3NSwieSI6MjM3fSx7IngiOjE1NS40NDMzNTkzNzUsInkiOjI5NC4wMDkwODY3Nzg3MzY5Nn1d" marker-start="url(#my-svg_class-compositionStart)"/><path d="M41.727,189.082L30.272,197.068C18.818,205.055,-4.091,221.027,-15.546,249.18C-27,277.333,-27,317.667,-27,358C-27,398.333,-27,438.667,-27,481C-27,523.333,-27,567.667,-27,612C-27,656.333,-27,700.667,0.527,735.863C28.053,771.059,83.107,797.117,110.633,810.147L138.16,823.176" id="id_MusicLibrary_Artist_2" class="edge-thickness-normal edge-pattern-solid relation" style=";;;" data-edge="true" data-et="edge" data-id="id_MusicLibrary_Artist_2" data-points="W3sieCI6NTUuODc2OTUzMTI1LCJ5IjoxNzkuMjE2MDA5NTAxNjc0MDV9LHsieCI6LTI3LCJ5IjoyMzd9LHsieCI6LTI3LCJ5IjozNTh9LHsieCI6LTI3LCJ5Ijo0Nzl9LHsieCI6LTI3LCJ5Ijo2MTJ9LHsieCI6LTI3LCJ5Ijo3NDV9LHsieCI6MTM4LjE2MDE1NjI1LCJ5Ijo4MjMuMTc1OTU2NzEwNTQ0MX1d" marker-start="url(#my-svg_class-compositionStart)"/><path d="M287.706,152.343L323.882,166.452C360.059,180.562,432.412,208.781,468.589,243.057C504.766,277.333,504.766,317.667,504.766,358C504.766,398.333,504.766,438.667,507.467,467C510.169,495.333,515.572,511.667,518.273,519.833L520.975,528" id="id_MusicLibrary_Song_3" class="edge-thickness-normal edge-pattern-solid relation" style=";;;" data-edge="true" data-et="edge" data-id="id_MusicLibrary_Song_3" data-points="W3sieCI6MjcxLjYzNDc2NTYyNSwieSI6MTQ2LjA3NDczMjA5NzM0NDE3fSx7IngiOjUwNC43NjU2MjUsInkiOjIzN30seyJ4Ijo1MDQuNzY1NjI1LCJ5IjozNTh9LHsieCI6NTA0Ljc2NTYyNSwieSI6NDc5fSx7IngiOjUyMC45NzQ3MTIxNzEwNTI2LCJ5Ijo1Mjh9XQ==" marker-start="url(#my-svg_class-compositionStart)"/><path d="M378.24,399.358L413.993,412.632C449.746,425.905,521.252,452.453,554.617,472.944C587.983,493.435,583.208,507.869,580.821,515.086L578.433,522.304" id="id_Track_Song_4" class="edge-thickness-normal edge-pattern-solid relation" style=";;;" data-edge="true" data-et="edge" data-id="id_Track_Song_4" data-points="W3sieCI6Mzc4LjI0MDIzNDM3NSwieSI6Mzk5LjM1NzkyNzQ3NjA0NDF9LHsieCI6NTkyLjc1NzgxMjUsInkiOjQ3OX0seyJ4Ijo1NzYuNTQ4NzI1MzI4OTQ3NCwieSI6NTI4fV0=" marker-end="url(#my-svg_class-dependencyEnd)"/><path d="M147.818,452.743L142.32,457.119C136.823,461.495,125.827,470.248,120.33,484.791C114.832,499.333,114.832,519.667,114.832,529.833L114.832,540" id="id_Track_CuePoint_5" class="edge-thickness-normal edge-pattern-solid relation" style=";;;" data-edge="true" data-et="edge" data-id="id_Track_CuePoint_5" data-points="W3sieCI6MTYxLjMxNDM1NjI3NTgyNjQ0LCJ5Ijo0NDJ9LHsieCI6MTE0LjgzMjAzMTI1LCJ5Ijo0Nzl9LHsieCI6MTE0LjgzMjAzMTI1LCJ5Ijo1NDB9XQ==" marker-start="url(#my-svg_class-compositionStart)"/><path d="M313.819,442L317.268,448.167C320.717,454.333,327.614,466.667,331.063,478C334.512,489.333,334.512,499.667,334.512,504.833L334.512,510" id="id_Track_EnergyLevel_6" class="edge-thickness-normal edge-pattern-solid relation" style=";;;" data-edge="true" data-et="edge" data-id="id_Track_EnergyLevel_6" data-points="W3sieCI6MzEzLjgxOTI2MzMwMDYxOTgsInkiOjQ0Mn0seyJ4IjozMzQuNTExNzE4NzUsInkiOjQ3OX0seyJ4IjozMzQuNTExNzE4NzUsInkiOjUxNn1d" marker-end="url(#my-svg_class-dependencyEnd)"/><path d="M548.762,696L548.762,704.167C548.762,712.333,548.762,728.667,502.989,751.275C457.216,773.883,365.67,802.766,319.897,817.207L274.124,831.649" id="id_Song_Artist_7" class="edge-thickness-normal edge-pattern-solid relation" style=";;;" data-edge="true" data-et="edge" data-id="id_Song_Artist_7" data-points="W3sieCI6NTQ4Ljc2MTcxODc1LCJ5Ijo2OTZ9LHsieCI6NTQ4Ljc2MTcxODc1LCJ5Ijo3NDV9LHsieCI6MjY4LjQwMjM0Mzc1LCJ5Ijo4MzMuNDU0MTIyOTk0NDcxfV0=" marker-end="url(#my-svg_class-dependencyEnd)"/><path d="M464.715,158L453.66,171.167C442.605,184.333,420.496,210.667,403.473,229.323C386.451,247.979,374.514,258.959,368.546,264.448L362.578,269.938" id="id_SessionTrack_Track_8" class="edge-thickness-normal edge-pattern-dashed relation" style=";;;" data-edge="true" data-et="edge" data-id="id_SessionTrack_Track_8" data-points="W3sieCI6NDY0LjcxNDY1Mjg0MzA0NTEsInkiOjE1OH0seyJ4IjozOTguMzg2NzE4NzUsInkiOjIzN30seyJ4IjozNTguMTYyMjM4NTA3MjMxNCwieSI6Mjc0fV0=" marker-end="url(#my-svg_class-dependencyEnd)"/></g><g class="edgeLabels"><g class="edgeLabel"><g class="label" data-id="id_MusicLibrary_Track_1" transform="translate(0, 0)"><foreignObject width="0" height="0"><div xmlns="http://www.w3.org/1999/xhtml" class="labelBkg" style="display: table-cell; white-space: nowrap; line-height: 1.5; max-width: 200px; text-align: center;"><span class="edgeLabel"></span></div></foreignObject></g></g><g class="edgeLabel"><g class="label" data-id="id_MusicLibrary_Artist_2" transform="translate(0, 0)"><foreignObject width="0" height="0"><div xmlns="http://www.w3.org/1999/xhtml" class="labelBkg" style="display: table-cell; white-space: nowrap; line-height: 1.5; max-width: 200px; text-align: center;"><span class="edgeLabel"></span></div></foreignObject></g></g><g class="edgeLabel"><g class="label" data-id="id_MusicLibrary_Song_3" transform="translate(0, 0)"><foreignObject width="0" height="0"><div xmlns="http://www.w3.org/1999/xhtml" class="labelBkg" style="display: table-cell; white-space: nowrap; line-height: 1.5; max-width: 200px; text-align: center;"><span class="edgeLabel"></span></div></foreignObject></g></g><g class="edgeLabel" transform="translate(509.69125, 448.1606)"><g class="label" data-id="id_Track_Song_4" transform="translate(-67.9921875, -12)"><foreignObject width="135.984375" height="24"><div xmlns="http://www.w3.org/1999/xhtml" class="labelBkg" style="display: table-cell; white-space: nowrap; line-height: 1.5; max-width: 200px; text-align: center;"><span class="edgeLabel"><p>playable version of</p></span></div></foreignObject></g></g><g class="edgeLabel"><g class="label" data-id="id_Track_CuePoint_5" transform="translate(0, 0)"><foreignObject width="0" height="0"><div xmlns="http://www.w3.org/1999/xhtml" class="labelBkg" style="display: table-cell; white-space: nowrap; line-height: 1.5; max-width: 200px; text-align: center;"><span class="edgeLabel"></span></div></foreignObject></g></g><g class="edgeLabel"><g class="label" data-id="id_Track_EnergyLevel_6" transform="translate(0, 0)"><foreignObject width="0" height="0"><div xmlns="http://www.w3.org/1999/xhtml" class="labelBkg" style="display: table-cell; white-space: nowrap; line-height: 1.5; max-width: 200px; text-align: center;"><span class="edgeLabel"></span></div></foreignObject></g></g><g class="edgeLabel" transform="translate(548.76171875, 745)"><g class="label" data-id="id_Song_Artist_7" transform="translate(-48.5625, -12)"><foreignObject width="97.125" height="24"><div xmlns="http://www.w3.org/1999/xhtml" class="labelBkg" style="display: table-cell; white-space: nowrap; line-height: 1.5; max-width: 200px; text-align: center;"><span class="edgeLabel"><p>performed by</p></span></div></foreignObject></g></g><g class="edgeLabel" transform="translate(413.97931, 218.42842)"><g class="label" data-id="id_SessionTrack_Track_8" transform="translate(-46.359375, -12)"><foreignObject width="92.71875" height="24"><div xmlns="http://www.w3.org/1999/xhtml" class="labelBkg" style="display: table-cell; white-space: nowrap; line-height: 1.5; max-width: 200px; text-align: center;"><span class="edgeLabel"><p>derived from</p></span></div></foreignObject></g></g><g class="edgeTerminals" transform="translate(63.45343402914518, 204.17514814702088)"><g class="inner" transform="translate(-2.890625, -8.25)"><foreignObject width="5.78125" height="16.5" style="width: 9px; height: 12px;"><div xmlns="http://www.w3.org/1999/xhtml" style="display: table-cell; white-space: nowrap; line-height: 1.5;"><span class="edgeLabel"><p>1</p></span></div></foreignObject></g></g><g class="edgeTerminals" transform="translate(32.942697674293896, 176.9203678594192)"><g class="inner" transform="translate(-2.890625, -8.25)"><foreignObject width="5.78125" height="16.5" style="width: 9px; height: 12px;"><div xmlns="http://www.w3.org/1999/xhtml" style="display: table-cell; white-space: nowrap; line-height: 1.5;"><span class="edgeLabel"><p>1</p></span></div></foreignObject></g></g><g class="edgeTerminals" transform="translate(282.48821800174426, 166.408263314548)"><g class="inner" transform="translate(-2.890625, -8.25)"><foreignObject width="5.78125" height="16.5" style="width: 9px; height: 12px;"><div xmlns="http://www.w3.org/1999/xhtml" style="display: table-cell; white-space: nowrap; line-height: 1.5;"><span class="edgeLabel"><p>1</p></span></div></foreignObject></g></g><g class="edgeTerminals" transform="translate(138.28070249483102, 441.1628631140973)"><g class="inner" transform="translate(-2.890625, -8.25)"><foreignObject width="5.78125" height="16.5" style="width: 9px; height: 12px;"><div xmlns="http://www.w3.org/1999/xhtml" style="display: table-cell; white-space: nowrap; line-height: 1.5;"><span class="edgeLabel"><p>1</p></span></div></foreignObject></g></g><g class="edgeTerminals" transform="translate(142.7402996499719, 267.2855309490267)"><g class="inner" transform="translate(-8.9453125, -8.25)"/><foreignObject width="17.890625" height="16.5" style="width: 36px; height: 12px;"><div xmlns="http://www.w3.org/1999/xhtml" style="display: table-cell; white-space: nowrap; line-height: 1.5;"><span class="edgeLabel"><p>1..*</p></span></div></foreignObject></g><g class="edgeTerminals" transform="translate(123.76002190912644, 797.1310652670677)"><g class="inner" transform="translate(-8.9453125, -8.25)"/><foreignObject width="17.890625" height="16.5" style="width: 36px; height: 12px;"><div xmlns="http://www.w3.org/1999/xhtml" style="display: table-cell; white-space: nowrap; line-height: 1.5;"><span class="edgeLabel"><p>1..*</p></span></div></foreignObject></g><g class="edgeTerminals" transform="translate(524.719701592854, 501.6745403248639)"><g class="inner" transform="translate(-8.9453125, -8.25)"/><foreignObject width="17.890625" height="16.5" style="width: 36px; height: 12px;"><div xmlns="http://www.w3.org/1999/xhtml" style="display: table-cell; white-space: nowrap; line-height: 1.5;"><span class="edgeLabel"><p>1..*</p></span></div></foreignObject></g><g class="edgeTerminals" transform="translate(124.83203062499999, 517.4999994642857)"><g class="inner" transform="translate(-8.9453125, -8.25)"/><foreignObject width="17.890625" height="16.5" style="width: 36px; height: 12px;"><div xmlns="http://www.w3.org/1999/xhtml" style="display: table-cell; white-space: nowrap; line-height: 1.5;"><span class="edgeLabel"><p>0..*</p></span></div></foreignObject></g></g><g class="nodes"><g class="node default" id="classId-MusicLibrary-0" transform="translate(163.755859375, 104)"><g class="basic label-container"><path d="M-107.87890625 -96 L107.87890625 -96 L107.87890625 96 L-107.87890625 96" stroke="none" stroke-width="0" fill="#2a2a3e" style=""/><path d="M-107.87890625 -96 C-53.00797130206103 -96, 1.8629636458779402 -96, 107.87890625 -96 M-107.87890625 -96 C-37.92923751911211 -96, 32.02043121177579 -96, 107.87890625 -96 M107.87890625 -96 C107.87890625 -35.80781480120527, 107.87890625 24.384370397589464, 107.87890625 96 M107.87890625 -96 C107.87890625 -38.563751129154426, 107.87890625 18.87249774169115, 107.87890625 96 M107.87890625 96 C44.24225191646673 96, -19.394402417066544 96, -107.87890625 96 M107.87890625 96 C57.604706467851805 96, 7.330506685703611 96, -107.87890625 96 M-107.87890625 96 C-107.87890625 53.40111239982369, -107.87890625 10.802224799647377, -107.87890625 -96 M-107.87890625 96 C-107.87890625 41.956732169414835, -107.87890625 -12.08653566117033, -107.87890625 -96" stroke="#6db33f" stroke-width="1.3" fill="none" stroke-dasharray="0 0" style=""/></g><g class="annotation-group text" transform="translate(-60.4609375, -72)"><g class="label" style="" transform="translate(0,-12)"><foreignObject width="120.921875" height="24"><div xmlns="http://www.w3.org/1999/xhtml" style="display: table-cell; white-space: nowrap; line-height: 1.5; max-width: 164px; text-align: center;"><span class="nodeLabel markdown-node-label" style=""><p>«AggregateRoot»</p></span></div></foreignObject></g></g><g class="label-group text" transform="translate(-47.1953125, -48)"><g class="label" style="font-weight: bolder" transform="translate(0,-12)"><foreignObject width="94.390625" height="24"><div xmlns="http://www.w3.org/1999/xhtml" style="display: table-cell; white-space: nowrap; line-height: 1.5; max-width: 138px; text-align: center;"><span class="nodeLabel markdown-node-label" style=""><p>MusicLibrary</p></span></div></foreignObject></g></g><g class="members-group text" transform="translate(-95.87890625, 0)"><g class="label" style="" transform="translate(0,-12)"><foreignObject width="131.296875" height="24"><div xmlns="http://www.w3.org/1999/xhtml" style="display: table-cell; white-space: nowrap; line-height: 1.5; max-width: 209px; text-align: center;"><span class="nodeLabel markdown-node-label" style=""><p>List&lt;Artist&gt; artists</p></span></div></foreignObject></g><g class="label" style="" transform="translate(0,12)"><foreignObject width="118.453125" height="24"><div xmlns="http://www.w3.org/1999/xhtml" style="display: table-cell; white-space: nowrap; line-height: 1.5; max-width: 203px; text-align: center;"><span class="nodeLabel markdown-node-label" style=""><p>List&lt;Song&gt; songs</p></span></div></foreignObject></g><g class="label" style="" transform="translate(0,36)"><foreignObject width="128.671875" height="24"><div xmlns="http://www.w3.org/1999/xhtml" style="display: table-cell; white-space: nowrap; line-height: 1.5; max-width: 209px; text-align: center;"><span class="nodeLabel markdown-node-label" style=""><p>List&lt;Track&gt; tracks</p></span></div></foreignObject></g></g><g class="methods-group text" transform="translate(-95.87890625, 96)"/><g class="divider" style=""><path d="M-107.87890625 -24 C-30.196570109168533 -24, 47.48576603166293 -24, 107.87890625 -24 M-107.87890625 -24 C-59.09204386914084 -24, -10.305181488281676 -24, 107.87890625 -24" stroke="#6db33f" stroke-width="1.3" fill="none" stroke-dasharray="0 0" style=""/></g><g class="divider" style=""><path d="M-107.87890625 72 C-25.579282274913353 72, 56.72034170017329 72, 107.87890625 72 M-107.87890625 72 C-53.25273554345953 72, 1.3734351630809414 72, 107.87890625 72" stroke="#6db33f" stroke-width="1.3" fill="none" stroke-dasharray="0 0" style=""/></g></g><g class="node default" id="classId-Track-1" transform="translate(266.841796875, 358)"><g class="basic label-container"><path d="M-111.3984375 -84 L111.3984375 -84 L111.3984375 84 L-111.3984375 84" stroke="none" stroke-width="0" fill="#2a2a3e" style=""/><path d="M-111.3984375 -84 C-43.57340591342408 -84, 24.251625673151835 -84, 111.3984375 -84 M-111.3984375 -84 C-45.56042117216758 -84, 20.27759515566484 -84, 111.3984375 -84 M111.3984375 -84 C111.3984375 -23.661812668454047, 111.3984375 36.676374663091906, 111.3984375 84 M111.3984375 -84 C111.3984375 -20.805475786009815, 111.3984375 42.38904842798037, 111.3984375 84 M111.3984375 84 C27.240426374082062 84, -56.917584751835875 84, -111.3984375 84 M111.3984375 84 C26.00633157057571 84, -59.38577435884858 84, -111.3984375 84 M-111.3984375 84 C-111.3984375 24.672393708326595, -111.3984375 -34.65521258334681, -111.3984375 -84 M-111.3984375 84 C-111.3984375 40.66237687352183, -111.3984375 -2.6752462529563417, -111.3984375 -84" stroke="#6db33f" stroke-width="1.3" fill="none" stroke-dasharray="0 0" style=""/></g><g class="annotation-group text" transform="translate(0, -60)"/><g class="label-group text" transform="translate(-19.984375, -60)"><g class="label" style="font-weight: bolder" transform="translate(0,-12)"><foreignObject width="39.96875" height="24"><div xmlns="http://www.w3.org/1999/xhtml" style="display: table-cell; white-space: nowrap; line-height: 1.5; max-width: 87px; text-align: center;"><span class="nodeLabel markdown-node-label" style=""><p>Track</p></span></div></foreignObject></g></g><g class="members-group text" transform="translate(-99.3984375, -12)"><g class="label" style="" transform="translate(0,-12)"><foreignObject width="69.8125" height="24"><div xmlns="http://www.w3.org/1999/xhtml" style="display: table-cell; white-space: nowrap; line-height: 1.5; max-width: 117px; text-align: center;"><span class="nodeLabel markdown-node-label" style=""><p>TrackId id</p></span></div></foreignObject></g><g class="label" style="" transform="translate(0,12)"><foreignObject width="177.5625" height="24"><div xmlns="http://www.w3.org/1999/xhtml" style="display: table-cell; white-space: nowrap; line-height: 1.5; max-width: 216px; text-align: center;"><span class="nodeLabel markdown-node-label" style=""><p>EnergyLevel energyLevel</p></span></div></foreignObject></g><g class="label" style="" transform="translate(0,36)"><foreignObject width="178.8125" height="24"><div xmlns="http://www.w3.org/1999/xhtml" style="display: table-cell; white-space: nowrap; line-height: 1.5; max-width: 256px; text-align: center;"><span class="nodeLabel markdown-node-label" style=""><p>List&lt;CuePoint&gt; cuePoints</p></span></div></foreignObject></g></g><g class="methods-group text" transform="translate(-99.3984375, 84)"/><g class="divider" style=""><path d="M-111.3984375 -36 C-64.04560537530458 -36, -16.692773250609136 -36, 111.3984375 -36 M-111.3984375 -36 C-48.68949482728433 -36, 14.019447845431344 -36, 111.3984375 -36" stroke="#6db33f" stroke-width="1.3" fill="none" stroke-dasharray="0 0" style=""/></g><g class="divider" style=""><path d="M-111.3984375 60 C-63.72103138066447 60, -16.04362526132894 60, 111.3984375 60 M-111.3984375 60 C-56.811337483039544 60, -2.2242374660790887 60, 111.3984375 60" stroke="#6db33f" stroke-width="1.3" fill="none" stroke-dasharray="0 0" style=""/></g></g><g class="node default" id="classId-Song-2" transform="translate(548.76171875, 612)"><g class="basic label-container"><path d="M-76.6953125 -84 L76.6953125 -84 L76.6953125 84 L-76.6953125 84" stroke="none" stroke-width="0" fill="#2a2a3e" style=""/><path d="M-76.6953125 -84 C-39.48670949568762 -84, -2.2781064913752402 -84, 76.6953125 -84 M-76.6953125 -84 C-17.222412361209066 -84, 42.25048777758187 -84, 76.6953125 -84 M76.6953125 -84 C76.6953125 -33.25984410002685, 76.6953125 17.480311799946307, 76.6953125 84 M76.6953125 -84 C76.6953125 -39.64786523253334, 76.6953125 4.704269534933317, 76.6953125 84 M76.6953125 84 C25.422310542739638 84, -25.850691414520725 84, -76.6953125 84 M76.6953125 84 C42.1628083624608 84, 7.630304224921602 84, -76.6953125 84 M-76.6953125 84 C-76.6953125 24.364474404305682, -76.6953125 -35.271051191388636, -76.6953125 -84 M-76.6953125 84 C-76.6953125 39.317917513058816, -76.6953125 -5.364164973882367, -76.6953125 -84" stroke="#6db33f" stroke-width="1.3" fill="none" stroke-dasharray="0 0" style=""/></g><g class="annotation-group text" transform="translate(0, -60)"/><g class="label-group text" transform="translate(-17.359375, -60)"><g class="label" style="font-weight: bolder" transform="translate(0,-12)"><foreignObject width="34.71875" height="24"><div xmlns="http://www.w3.org/1999/xhtml" style="display: table-cell; white-space: nowrap; line-height: 1.5; max-width: 83px; text-align: center;"><span class="nodeLabel markdown-node-label" style=""><p>Song</p></span></div></foreignObject></g></g><g class="members-group text" transform="translate(-64.6953125, -12)"><g class="label" style="" transform="translate(0,-12)"><foreignObject width="64.71875" height="24"><div xmlns="http://www.w3.org/1999/xhtml" style="display: table-cell; white-space: nowrap; line-height: 1.5; max-width: 113px; text-align: center;"><span class="nodeLabel markdown-node-label" style=""><p>SongId id</p></span></div></foreignObject></g><g class="label" style="" transform="translate(0,12)"><foreignObject width="77.109375" height="24"><div xmlns="http://www.w3.org/1999/xhtml" style="display: table-cell; white-space: nowrap; line-height: 1.5; max-width: 118px; text-align: center;"><span class="nodeLabel markdown-node-label" style=""><p>String title</p></span></div></foreignObject></g><g class="label" style="" transform="translate(0,36)"><foreignObject width="112.03125" height="24"><div xmlns="http://www.w3.org/1999/xhtml" style="display: table-cell; white-space: nowrap; line-height: 1.5; max-width: 154px; text-align: center;"><span class="nodeLabel markdown-node-label" style=""><p>String audioFile</p></span></div></foreignObject></g></g><g class="methods-group text" transform="translate(-64.6953125, 84)"/><g class="divider" style=""><path d="M-76.6953125 -36 C-23.968428363253196 -36, 28.75845577349361 -36, 76.6953125 -36 M-76.6953125 -36 C-18.699435593549182 -36, 39.296441312901635 -36, 76.6953125 -36" stroke="#6db33f" stroke-width="1.3" fill="none" stroke-dasharray="0 0" style=""/></g><g class="divider" style=""><path d="M-76.6953125 60 C-22.980411337777 60, 30.734489824446 60, 76.6953125 60 M-76.6953125 60 C-21.506786170525046 60, 33.68174015894991 60, 76.6953125 60" stroke="#6db33f" stroke-width="1.3" fill="none" stroke-dasharray="0 0" style=""/></g></g><g class="node default" id="classId-Artist-3" transform="translate(203.28125, 854)"><g class="basic label-container"><path d="M-65.12109375 -72 L65.12109375 -72 L65.12109375 72 L-65.12109375 72" stroke="none" stroke-width="0" fill="#2a2a3e" style=""/><path d="M-65.12109375 -72 C-33.895287885949614 -72, -2.6694820218992277 -72, 65.12109375 -72 M-65.12109375 -72 C-17.394947631213064 -72, 30.33119848757387 -72, 65.12109375 -72 M65.12109375 -72 C65.12109375 -16.305000298621593, 65.12109375 39.389999402756814, 65.12109375 72 M65.12109375 -72 C65.12109375 -40.0851133845937, 65.12109375 -8.170226769187394, 65.12109375 72 M65.12109375 72 C33.24827950177982 72, 1.3754652535596321 72, -65.12109375 72 M65.12109375 72 C17.472081633434186 72, -30.176930483131628 72, -65.12109375 72 M-65.12109375 72 C-65.12109375 32.15421661155094, -65.12109375 -7.691566776898114, -65.12109375 -72 M-65.12109375 72 C-65.12109375 29.67378743638283, -65.12109375 -12.652425127234338, -65.12109375 -72" stroke="#6db33f" stroke-width="1.3" fill="none" stroke-dasharray="0 0" style=""/></g><g class="annotation-group text" transform="translate(0, -48)"/><g class="label-group text" transform="translate(-20.6640625, -48)"><g class="label" style="font-weight: bolder" transform="translate(0,-12)"><foreignObject width="41.328125" height="24"><div xmlns="http://www.w3.org/1999/xhtml" style="display: table-cell; white-space: nowrap; line-height: 1.5; max-width: 86px; text-align: center;"><span class="nodeLabel markdown-node-label" style=""><p>Artist</p></span></div></foreignObject></g></g><g class="members-group text" transform="translate(-53.12109375, 0)"><g class="label" style="" transform="translate(0,-12)"><foreignObject width="71.046875" height="24"><div xmlns="http://www.w3.org/1999/xhtml" style="display: table-cell; white-space: nowrap; line-height: 1.5; max-width: 116px; text-align: center;"><span class="nodeLabel markdown-node-label" style=""><p>ArtistId id</p></span></div></foreignObject></g><g class="label" style="" transform="translate(0,12)"><foreignObject width="85.578125" height="24"><div xmlns="http://www.w3.org/1999/xhtml" style="display: table-cell; white-space: nowrap; line-height: 1.5; max-width: 128px; text-align: center;"><span class="nodeLabel markdown-node-label" style=""><p>String name</p></span></div></foreignObject></g></g><g class="methods-group text" transform="translate(-53.12109375, 72)"/><g class="divider" style=""><path d="M-65.12109375 -24 C-15.884748984410166 -24, 33.35159578117967 -24, 65.12109375 -24 M-65.12109375 -24 C-33.42396309357799 -24, -1.7268324371559771 -24, 65.12109375 -24" stroke="#6db33f" stroke-width="1.3" fill="none" stroke-dasharray="0 0" style=""/></g><g class="divider" style=""><path d="M-65.12109375 48 C-16.88442662002047 48, 31.35224050995906 48, 65.12109375 48 M-65.12109375 48 C-17.193475848263354 48, 30.734142053473292 48, 65.12109375 48" stroke="#6db33f" stroke-width="1.3" fill="none" stroke-dasharray="0 0" style=""/></g></g><g class="node default" id="classId-CuePoint-4" transform="translate(114.83203125, 612)"><g class="basic label-container"><path d="M-106.83203125 -72 L106.83203125 -72 L106.83203125 72 L-106.83203125 72" stroke="none" stroke-width="0" fill="#2a2a3e" style=""/><path d="M-106.83203125 -72 C-58.66010011946287 -72, -10.488168988925736 -72, 106.83203125 -72 M-106.83203125 -72 C-36.583012249082856 -72, 33.66600675183429 -72, 106.83203125 -72 M106.83203125 -72 C106.83203125 -28.915393762142713, 106.83203125 14.169212475714573, 106.83203125 72 M106.83203125 -72 C106.83203125 -26.088115751108013, 106.83203125 19.823768497783973, 106.83203125 72 M106.83203125 72 C25.51092136306265 72, -55.8101885238747 72, -106.83203125 72 M106.83203125 72 C40.64882794350777 72, -25.534375362984463 72, -106.83203125 72 M-106.83203125 72 C-106.83203125 32.72072247113664, -106.83203125 -6.558555057726721, -106.83203125 -72 M-106.83203125 72 C-106.83203125 33.40211448654803, -106.83203125 -5.195771026903941, -106.83203125 -72" stroke="#6db33f" stroke-width="1.3" fill="none" stroke-dasharray="0 0" style=""/></g><g class="annotation-group text" transform="translate(0, -48)"/><g class="label-group text" transform="translate(-33.3515625, -48)"><g class="label" style="font-weight: bolder" transform="translate(0,-12)"><foreignObject width="66.703125" height="24"><div xmlns="http://www.w3.org/1999/xhtml" style="display: table-cell; white-space: nowrap; line-height: 1.5; max-width: 110px; text-align: center;"><span class="nodeLabel markdown-node-label" style=""><p>CuePoint</p></span></div></foreignObject></g></g><g class="members-group text" transform="translate(-94.83203125, 0)"><g class="label" style="" transform="translate(0,-12)"><foreignObject width="81.90625" height="24"><div xmlns="http://www.w3.org/1999/xhtml" style="display: table-cell; white-space: nowrap; line-height: 1.5; max-width: 124px; text-align: center;"><span class="nodeLabel markdown-node-label" style=""><p>String label</p></span></div></foreignObject></g><g class="label" style="" transform="translate(0,12)"><foreignObject width="156.3125" height="24"><div xmlns="http://www.w3.org/1999/xhtml" style="display: table-cell; white-space: nowrap; line-height: 1.5; max-width: 192px; text-align: center;"><span class="nodeLabel markdown-node-label" style=""><p>Duration elapsedTime</p></span></div></foreignObject></g></g><g class="methods-group text" transform="translate(-94.83203125, 72)"/><g class="divider" style=""><path d="M-106.83203125 -24 C-30.994761471099082 -24, 44.842508307801836 -24, 106.83203125 -24 M-106.83203125 -24 C-52.93362541778224 -24, 0.9647804144355234 -24, 106.83203125 -24" stroke="#6db33f" stroke-width="1.3" fill="none" stroke-dasharray="0 0" style=""/></g><g class="divider" style=""><path d="M-106.83203125 48 C-41.28436536631344 48, 24.263300517373125 48, 106.83203125 48 M-106.83203125 48 C-47.75925046946168 48, 11.313530311076633 48, 106.83203125 48" stroke="#6db33f" stroke-width="1.3" fill="none" stroke-dasharray="0 0" style=""/></g></g><g class="node default" id="classId-EnergyLevel-5" transform="translate(334.51171875, 612)"><g class="basic label-container"><path d="M-62.84765625 -96 L62.84765625 -96 L62.84765625 96 L-62.84765625 96" stroke="none" stroke-width="0" fill="#2a2a3e" style=""/><path d="M-62.84765625 -96 C-25.6838659444346 -96, 11.479924361130799 -96, 62.84765625 -96 M-62.84765625 -96 C-37.076562586258646 -96, -11.3054689225173 -96, 62.84765625 -96 M62.84765625 -96 C62.84765625 -24.5895044395281, 62.84765625 46.8209911209438, 62.84765625 96 M62.84765625 -96 C62.84765625 -53.44775536290251, 62.84765625 -10.895510725805025, 62.84765625 96 M62.84765625 96 C22.42635778315305 96, -17.994940683693898 96, -62.84765625 96 M62.84765625 96 C29.50060406282688 96, -3.8464481243462387 96, -62.84765625 96 M-62.84765625 96 C-62.84765625 31.811308533132205, -62.84765625 -32.37738293373559, -62.84765625 -96 M-62.84765625 96 C-62.84765625 31.87058366193044, -62.84765625 -32.25883267613912, -62.84765625 -96" stroke="#6db33f" stroke-width="1.3" fill="none" stroke-dasharray="0 0" style=""/></g><g class="annotation-group text" transform="translate(-28.140625, -72)"><g class="label" style="" transform="translate(0,-12)"><foreignObject width="56.28125" height="24"><div xmlns="http://www.w3.org/1999/xhtml" style="display: table-cell; white-space: nowrap; line-height: 1.5; max-width: 102px; text-align: center;"><span class="nodeLabel markdown-node-label" style=""><p>«enum»</p></span></div></foreignObject></g></g><g class="label-group text" transform="translate(-45.7734375, -48)"><g class="label" style="font-weight: bolder" transform="translate(0,-12)"><foreignObject width="91.546875" height="24"><div xmlns="http://www.w3.org/1999/xhtml" style="display: table-cell; white-space: nowrap; line-height: 1.5; max-width: 132px; text-align: center;"><span class="nodeLabel markdown-node-label" style=""><p>EnergyLevel</p></span></div></foreignObject></g></g><g class="members-group text" transform="translate(-50.84765625, 0)"><g class="label" style="" transform="translate(0,-12)"><foreignObject width="32.515625" height="24"><div xmlns="http://www.w3.org/1999/xhtml" style="display: table-cell; white-space: nowrap; line-height: 1.5; max-width: 86px; text-align: center;"><span class="nodeLabel markdown-node-label" style=""><p>LOW</p></span></div></foreignObject></g><g class="label" style="" transform="translate(0,12)"><foreignObject width="55.921875" height="24"><div xmlns="http://www.w3.org/1999/xhtml" style="display: table-cell; white-space: nowrap; line-height: 1.5; max-width: 117px; text-align: center;"><span class="nodeLabel markdown-node-label" style=""><p>MEDIUM</p></span></div></foreignObject></g><g class="label" style="" transform="translate(0,36)"><foreignObject width="36.21875" height="24"><div xmlns="http://www.w3.org/1999/xhtml" style="display: table-cell; white-space: nowrap; line-height: 1.5; max-width: 90px; text-align: center;"><span class="nodeLabel markdown-node-label" style=""><p>HIGH</p></span></div></foreignObject></g></g><g class="methods-group text" transform="translate(-50.84765625, 96)"/><g class="divider" style=""><path d="M-62.84765625 -24 C-21.026262649612804 -24, 20.795130950774393 -24, 62.84765625 -24 M-62.84765625 -24 C-28.88867544218703 -24, 5.070305365625941 -24, 62.84765625 -24" stroke="#6db33f" stroke-width="1.3" fill="none" stroke-dasharray="0 0" style=""/></g><g class="divider" style=""><path d="M-62.84765625 72 C-18.44695863884141 72, 25.953738972317183 72, 62.84765625 72 M-62.84765625 72 C-25.232699753280876 72, 12.382256743438248 72, 62.84765625 72" stroke="#6db33f" stroke-width="1.3" fill="none" stroke-dasharray="0 0" style=""/></g></g><g class="node default" id="classId-SessionTrack-6" transform="translate(510.052734375, 104)"><g class="basic label-container"><path d="M-65.453125 -54 L65.453125 -54 L65.453125 54 L-65.453125 54" stroke="none" stroke-width="0" fill="#2a2a3e" style=""/><path d="M-65.453125 -54 C-21.612516229815085 -54, 22.22809254036983 -54, 65.453125 -54 M-65.453125 -54 C-25.62337272186688 -54, 14.206379556266242 -54, 65.453125 -54 M65.453125 -54 C65.453125 -17.96349218489756, 65.453125 18.07301563020488, 65.453125 54 M65.453125 -54 C65.453125 -19.707717028423417, 65.453125 14.584565943153166, 65.453125 54 M65.453125 54 C37.70158754335637 54, 9.950050086712743 54, -65.453125 54 M65.453125 54 C13.30373922002665 54, -38.8456465599467 54, -65.453125 54 M-65.453125 54 C-65.453125 17.55647485388021, -65.453125 -18.88705029223958, -65.453125 -54 M-65.453125 54 C-65.453125 23.375978331743315, -65.453125 -7.248043336513369, -65.453125 -54" stroke="#6db33f" stroke-width="1.3" fill="none" stroke-dasharray="0 0" style=""/></g><g class="annotation-group text" transform="translate(-53.453125, -30)"><g class="label" style="" transform="translate(0,-12)"><foreignObject width="106.90625" height="24"><div xmlns="http://www.w3.org/1999/xhtml" style="display: table-cell; white-space: nowrap; line-height: 1.5; max-width: 146px; text-align: center;"><span class="nodeLabel markdown-node-label" style=""><p>«runtime side»</p></span></div></foreignObject></g></g><g class="label-group text" transform="translate(-47.1953125, -6)"><g class="label" style="font-weight: bolder" transform="translate(0,-12)"><foreignObject width="94.390625" height="24"><div xmlns="http://www.w3.org/1999/xhtml" style="display: table-cell; white-space: nowrap; line-height: 1.5; max-width: 136px; text-align: center;"><span class="nodeLabel markdown-node-label" style=""><p>SessionTrack</p></span></div></foreignObject></g></g><g class="members-group text" transform="translate(-53.453125, 42)"/><g class="methods-group text" transform="translate(-53.453125, 72)"/><g class="divider" style=""><path d="M-65.453125 18 C-24.496292440174088 18, 16.460540119651824 18, 65.453125 18 M-65.453125 18 C-21.714167171466308 18, 22.024790657067385 18, 65.453125 18" stroke="#6db33f" stroke-width="1.3" fill="none" stroke-dasharray="0 0" style=""/></g><g class="divider" style=""><path d="M-65.453125 36 C-14.77413436526146 36, 35.90485626947708 36, 65.453125 36 M-65.453125 36 C-17.36205196609253 36, 30.72902106781494 36, 65.453125 36" stroke="#6db33f" stroke-width="1.3" fill="none" stroke-dasharray="0 0" style=""/></g></g></g></g></g></svg>